<?xml version="1.0" standalone="no"?><!DOCTYPE svg PUBLIC "-//W3C//DTD SVG 20010904//EN" "http://www.w3.org/TR/2001/REC-SVG-20010904/DTD/svg10.dtd"><svg xmlns="http://www.w3.org/2000/svg" version="1.0" width="600.000000pt" height="400.000000pt" viewBox="0 0 600.000000 400.000000" preserveAspectRatio="xMidYMid meet">

<g transform="translate(0.000000,400.000000) scale(0.100000,-0.100000)" fill="#84c318" stroke="none">
<path d="M1715 3456 c-34 -11 -40 -17 -43 -44 -3 -26 -8 -32 -28 -32 -22 0 -24 -4 -24 -45 0 -41 2 -45 24 -45 23 0 24 -3 27 -84 3 -72 7 -88 27 -109 27 -29 76 -41 127 -31 33 6 35 9 35 45 0 34 -3 39 -23 39 -36 0 -47 19 -47 82 l0 58 35 0 c35 0 35 0 35 45 0 45 0 45 -35 45 -35 0 -35 0 -35 45 0 50 -5 52 -75 31z"/>
<path d="M3325 3456 c-34 -11 -40 -17 -43 -44 -3 -26 -8 -32 -28 -32 -22 0 -24 -4 -24 -45 0 -41 2 -45 24 -45 23 0 24 -3 27 -84 3 -72 7 -88 27 -109 27 -29 76 -41 127 -31 33 6 35 9 35 45 0 34 -3 39 -23 39 -36 0 -47 19 -47 82 l0 58 35 0 c35 0 35 0 35 45 0 45 0 45 -35 45 -35 0 -35 0 -35 45 0 50 -5 52 -75 31z"/>
<path d="M1071 3368 c-61 -31 -82 -63 -87 -134 -9 -108 48 -169 161 -169 94 0 115 9 115 49 l0 35 -55 -6 c-41 -4 -61 -2 -80 11 -43 29 -29 36 70 36 l95 0 0 48 c0 118 -114 185 -219 130z m103 -74 c11 -29 6 -34 -34 -34 -43 0 -45 2 -30 31 13 23 55 25 64 3z"/>
<path d="M1415 3375 c-94 -34 -100 -132 -9 -174 24 -12 48 -21 54 -21 5 0 10 -10 10 -21 0 -20 -4 -21 -47 -16 -27 2 -56 8 -65 12 -16 6 -18 1 -18 -34 0 -49 8 -54 94 -55 74 -1 122 17 141 55 32 61 5 117 -70 142 -59 21 -53 42 13 41 l52 -2 0 38 c0 35 -2 38 -37 44 -54 8 -73 7 -118 -9z"/>
<path d="M2013 3380 c-51 -12 -83 -38 -104 -83 -61 -135 38 -253 192 -232 l49 7 0 43 0 43 -45 -6 c-61 -6 -85 15 -85 74 0 56 30 79 90 71 l40 -5 0 43 c0 40 -2 43 -31 49 -38 7 -63 6 -106 -4z"/>
<path d="M2307 3376 c-70 -26 -107 -78 -107 -151 0 -112 97 -181 219 -156 86 17 131 72 131 159 0 115 -126 192 -243 148z m109 -101 c18 -28 14 -85 -7 -111 -14 -17 -51 -18 -67 -2 -7 7 -12 35 -12 63 0 28 5 56 12 63 20 20 56 14 74 -13z"/>
<path d="M2705 3386 c-5 -3 -27 -7 -47 -11 -37 -6 -38 -7 -38 -47 0 -34 3 -39 18 -33 9 4 38 10 63 12 35 4 50 1 63 -12 22 -22 7 -35 -41 -35 -43 0 -111 -28 -123 -51 -13 -23 -13 -85 0 -108 13 -26 64 -45 97 -36 16 3 40 18 56 33 l27 26 0 -27 c0 -26 2 -27 55 -27 l55 0 -1 103 c0 115 -12 162 -49 189 -23 17 -112 33 -135 24z m75 -184 c0 -20 -34 -52 -54 -52 -30 0 -40 24 -20 45 16 15 74 21 74 7z"/>
<path d="M3025 3375 c-94 -34 -100 -132 -9 -174 24 -12 48 -21 54 -21 5 0 10 -10 10 -21 0 -20 -4 -21 -47 -16 -27 2 -56 8 -65 12 -16 6 -18 1 -18 -34 0 -49 8 -54 94 -55 74 -1 122 17 141 55 32 61 5 117 -70 142 -59 21 -53 42 13 41 l52 -2 0 38 c0 35 -2 38 -37 44 -54 8 -73 7 -118 -9z"/>
<path d="M450 3373 c0 -8 58 -226 71 -270 10 -33 11 -33 74 -33 l62 0 18 88 c23 113 31 125 38 66 3 -27 11 -73 17 -101 l12 -53 64 0 63 0 16 53 c8 28 28 98 44 155 l28 103 -56 -3 -56 -3 -14 -110 -15 -110 -18 90 c-30 149 -20 135 -87 135 l-58 0 -24 -112 -24 -113 -12 80 c-24 160 -15 145 -83 145 -33 0 -60 -3 -60 -7z"/>
<path d="M488 2888 c22 -40 248 -475 502 -965 l462 -893 2055 0 2054 0 -39 72 c-22 40 -248 475 -502 965 l-462 893 -2055 0 -2054 0 39 -72z m1387 -603 c33 -245 62 -441 66 -437 3 4 57 204 120 445 l114 437 242 0 242 0 11 -57 c7 -32 49 -231 95 -443 65 -305 84 -378 89 -350 3 19 31 206 61 415 31 209 58 392 61 408 l6 27 223 0 223 0 -177 -707 -177 -708 -244 0 -245 0 -97 413 c-53 228 -98 416 -100 418 -3 2 -49 -164 -103 -369 -54 -204 -104 -393 -112 -419 l-14 -48 -252 0 -252 0 -164 693 c-90 380 -166 700 -169 710 -4 16 12 17 245 17 l249 0 59 -445z m2565 270 l0 -165 -225 0 -225 0 0 -100 0 -100 215 0 215 0 0 -165 0 -165 -215 0 -215 0 0 -105 0 -105 245 0 245 0 0 -165 0 -165 -460 0 -460 0 0 700 0 700 440 0 440 0 0 -165z"/>
<path d="M3120 890 l0 -89 -35 20 c-61 36 -141 4 -171 -67 -18 -43 -18 -125 0 -169 29 -68 115 -91 175 -47 30 22 31 22 31 2 0 -18 6 -20 60 -20 l60 0 0 230 0 230 -60 0 -60 0 0 -90z m-10 -159 c5 -11 10 -34 10 -51 0 -44 -17 -70 -45 -70 -49 0 -71 82 -34 127 17 19 57 16 69 -6z"/>
<path d="M4636 947 c-14 -15 -26 -31 -26 -37 0 -6 12 -22 26 -37 20 -20 31 -24 56 -19 42 8 58 23 58 56 0 33 -16 48 -58 56 -25 5 -36 1 -56 -19z"/>
<path d="M4450 909 c-50 -15 -55 -19 -58 -48 -3 -25 -8 -31 -28 -31 -22 0 -24 -4 -24 -45 0 -41 2 -45 25 -45 24 0 25 -2 25 -75 0 -41 5 -85 11 -99 20 -42 88 -65 147 -50 18 5 22 13 22 45 0 34 -3 38 -27 41 -27 3 -28 5 -31 71 l-3 67 31 0 c29 0 30 2 30 45 0 43 -1 45 -29 45 -29 0 -30 2 -33 48 l-3 48 -55 -17z"/>
<path d="M2656 830 c-123 -39 -146 -237 -34 -297 35 -18 132 -24 181 -10 23 6 27 13 27 41 l0 34 -60 -5 c-49 -5 -64 -2 -80 12 -11 10 -20 22 -20 27 0 4 43 8 96 8 l97 0 -6 56 c-9 89 -47 130 -128 139 -24 2 -57 0 -73 -5z m82 -82 c24 -24 13 -38 -28 -38 -26 0 -40 5 -40 13 0 18 21 37 40 37 9 0 21 -5 28 -12z"/>
<path d="M3811 830 c-73 -17 -121 -80 -121 -158 0 -111 85 -174 210 -157 l50 7 0 42 0 43 -48 -5 c-44 -4 -51 -2 -70 23 -12 15 -22 38 -22 50 0 12 10 35 22 50 19 25 26 27 70 23 l48 -5 0 42 c0 40 -2 43 -31 49 -38 7 -63 6 -108 -4z"/>
<path d="M4082 830 c-58 -12 -62 -16 -62 -57 0 -32 2 -35 23 -28 56 17 113 17 127 0 18 -22 4 -31 -62 -38 -64 -8 -93 -27 -108 -72 -10 -30 -9 -41 7 -72 30 -61 98 -69 149 -18 l24 24 0 -24 c0 -24 3 -25 61 -25 l62 0 -6 113 c-5 124 -15 159 -49 181 -30 19 -112 27 -166 16z m98 -188 c0 -25 -19 -42 -47 -42 -31 0 -42 29 -18 46 28 20 65 18 65 -4z"/>
<path d="M4907 826 c-73 -27 -107 -76 -107 -153 0 -100 64 -158 175 -158 67 0 114 21 149 68 16 22 21 43 21 92 0 71 -19 106 -73 138 -41 24 -118 31 -165 13z m101 -88 c17 -17 15 -113 -2 -128 -22 -18 -59 -8 -74 20 -14 28 -10 84 9 106 14 17 51 18 67 2z"/>
<path d="M5390 829 c-14 -6 -35 -20 -47 -31 l-23 -21 0 26 c0 26 -2 27 -60 27 l-60 0 0 -155 0 -155 60 0 60 0 0 84 c0 103 10 136 44 136 32 0 36 -15 36 -126 l0 -94 65 0 65 0 0 93 c-1 160 -20 211 -85 222 -17 2 -41 0 -55 -6z"/>
<path d="M3310 710 c0 -141 11 -172 65 -190 39 -13 84 -3 117 27 17 15 18 15 18 -5 0 -20 5 -22 60 -22 l60 0 0 155 0 155 -60 0 -59 0 -3 -101 c-3 -84 -6 -104 -20 -113 -13 -8 -23 -8 -35 0 -15 9 -18 29 -21 113 l-3 101 -59 0 -60 0 0 -120z"/>
<path d="M4620 675 l0 -155 60 0 60 0 0 155 0 155 -60 0 -60 0 0 -155z"/>
</g>
</svg>